<svg id="visual" viewBox="0 0 900 200" width="900" height="200" xmlns="http://www.w3.org/2000/svg" xmlns:xlink="http://www.w3.org/1999/xlink" version="1.1"><rect x="0" y="0" width="900" height="200" fill="#ffffff"></rect><path d="M0 145L21.5 140.2C43 135.3 86 125.7 128.8 128.3C171.7 131 214.3 146 257.2 147.7C300 149.3 343 137.7 385.8 138C428.7 138.3 471.3 150.7 514.2 151.8C557 153 600 143 642.8 135.8C685.7 128.7 728.3 124.3 771.2 130C814 135.7 857 151.3 878.5 159.2L900 167L900 0L878.5 0C857 0 814 0 771.2 0C728.3 0 685.7 0 642.8 0C600 0 557 0 514.2 0C471.3 0 428.7 0 385.8 0C343 0 300 0 257.2 0C214.3 0 171.7 0 128.8 0C86 0 43 0 21.5 0L0 0Z" fill="#cc6709"></path><path d="M0 126L21.5 125.8C43 125.7 86 125.3 128.8 120C171.7 114.7 214.3 104.3 257.2 107.2C300 110 343 126 385.8 132.7C428.7 139.3 471.3 136.7 514.2 135.3C557 134 600 134 642.8 136.2C685.7 138.3 728.3 142.7 771.2 139.8C814 137 857 127 878.5 122L900 117L900 0L878.5 0C857 0 814 0 771.2 0C728.3 0 685.7 0 642.8 0C600 0 557 0 514.2 0C471.3 0 428.7 0 385.8 0C343 0 300 0 257.2 0C214.3 0 171.7 0 128.8 0C86 0 43 0 21.5 0L0 0Z" fill="#d36e11"></path><path d="M0 95L21.5 98.8C43 102.7 86 110.3 128.8 108C171.7 105.7 214.3 93.3 257.2 89.8C300 86.3 343 91.7 385.8 99.3C428.7 107 471.3 117 514.2 115.2C557 113.3 600 99.7 642.8 94.3C685.7 89 728.3 92 771.2 93.3C814 94.7 857 94.3 878.5 94.2L900 94L900 0L878.5 0C857 0 814 0 771.2 0C728.3 0 685.7 0 642.8 0C600 0 557 0 514.2 0C471.3 0 428.7 0 385.8 0C343 0 300 0 257.2 0C214.3 0 171.7 0 128.8 0C86 0 43 0 21.5 0L0 0Z" fill="#da7418"></path><path d="M0 75L21.5 73.5C43 72 86 69 128.8 72.2C171.7 75.3 214.3 84.7 257.2 88.3C300 92 343 90 385.8 85.8C428.7 81.7 471.3 75.3 514.2 74.8C557 74.3 600 79.7 642.8 84.3C685.7 89 728.3 93 771.2 96.3C814 99.7 857 102.3 878.5 103.7L900 105L900 0L878.5 0C857 0 814 0 771.2 0C728.3 0 685.7 0 642.8 0C600 0 557 0 514.2 0C471.3 0 428.7 0 385.8 0C343 0 300 0 257.2 0C214.3 0 171.7 0 128.8 0C86 0 43 0 21.5 0L0 0Z" fill="#e17b1f"></path><path d="M0 66L21.5 69.5C43 73 86 80 128.8 81.7C171.7 83.3 214.3 79.7 257.2 79.3C300 79 343 82 385.8 78.8C428.7 75.7 471.3 66.3 514.2 63.5C557 60.7 600 64.3 642.8 64.5C685.7 64.7 728.3 61.3 771.2 60.3C814 59.3 857 60.7 878.5 61.3L900 62L900 0L878.5 0C857 0 814 0 771.2 0C728.3 0 685.7 0 642.8 0C600 0 557 0 514.2 0C471.3 0 428.7 0 385.8 0C343 0 300 0 257.2 0C214.3 0 171.7 0 128.8 0C86 0 43 0 21.5 0L0 0Z" fill="#e98125"></path><path d="M0 44L21.5 44.8C43 45.7 86 47.3 128.8 46.7C171.7 46 214.3 43 257.2 41.5C300 40 343 40 385.8 44.3C428.7 48.7 471.3 57.3 514.2 59.3C557 61.3 600 56.7 642.8 56.8C685.7 57 728.3 62 771.2 60.5C814 59 857 51 878.5 47L900 43L900 0L878.5 0C857 0 814 0 771.2 0C728.3 0 685.7 0 642.8 0C600 0 557 0 514.2 0C471.3 0 428.7 0 385.8 0C343 0 300 0 257.2 0C214.3 0 171.7 0 128.8 0C86 0 43 0 21.5 0L0 0Z" fill="#f0882b"></path><path d="M0 32L21.5 33.7C43 35.3 86 38.7 128.8 37.8C171.7 37 214.3 32 257.2 30.7C300 29.3 343 31.7 385.8 34.7C428.7 37.7 471.3 41.3 514.2 43.7C557 46 600 47 642.8 43.7C685.7 40.3 728.3 32.7 771.2 31.2C814 29.7 857 34.3 878.5 36.7L900 39L900 0L878.5 0C857 0 814 0 771.2 0C728.3 0 685.7 0 642.8 0C600 0 557 0 514.2 0C471.3 0 428.7 0 385.8 0C343 0 300 0 257.2 0C214.3 0 171.7 0 128.8 0C86 0 43 0 21.5 0L0 0Z" fill="#f88f30"></path><path d="M0 31L21.5 31.2C43 31.3 86 31.7 128.8 30C171.7 28.3 214.3 24.7 257.2 22.8C300 21 343 21 385.8 22.7C428.7 24.3 471.3 27.7 514.2 26C557 24.3 600 17.7 642.8 17.8C685.7 18 728.3 25 771.2 27.3C814 29.7 857 27.3 878.5 26.2L900 25L900 0L878.5 0C857 0 814 0 771.2 0C728.3 0 685.7 0 642.8 0C600 0 557 0 514.2 0C471.3 0 428.7 0 385.8 0C343 0 300 0 257.2 0C214.3 0 171.7 0 128.8 0C86 0 43 0 21.5 0L0 0Z" fill="#ff9636"></path></svg>