<svg id="visual" viewBox="0 0 900 300" width="900" height="300" xmlns="http://www.w3.org/2000/svg" xmlns:xlink="http://www.w3.org/1999/xlink" version="1.1"><rect x="0" y="0" width="900" height="300" fill="#FF9636"></rect><path d="M0 122L21.5 122.3C43 122.7 86 123.3 128.8 115.8C171.7 108.3 214.3 92.7 257.2 91.3C300 90 343 103 385.8 104C428.7 105 471.3 94 514.2 89.5C557 85 600 87 642.8 92C685.7 97 728.3 105 771.2 106.7C814 108.3 857 103.7 878.5 101.3L900 99L900 0L878.5 0C857 0 814 0 771.2 0C728.3 0 685.7 0 642.8 0C600 0 557 0 514.2 0C471.3 0 428.7 0 385.8 0C343 0 300 0 257.2 0C214.3 0 171.7 0 128.8 0C86 0 43 0 21.5 0L0 0Z" fill="#ff9636"></path><path d="M0 74L21.5 76.7C43 79.3 86 84.7 128.8 84C171.7 83.3 214.3 76.7 257.2 77.8C300 79 343 88 385.8 92.2C428.7 96.3 471.3 95.7 514.2 96.2C557 96.7 600 98.3 642.8 93.5C685.7 88.7 728.3 77.3 771.2 75.8C814 74.3 857 82.7 878.5 86.8L900 91L900 0L878.5 0C857 0 814 0 771.2 0C728.3 0 685.7 0 642.8 0C600 0 557 0 514.2 0C471.3 0 428.7 0 385.8 0C343 0 300 0 257.2 0C214.3 0 171.7 0 128.8 0C86 0 43 0 21.5 0L0 0Z" fill="#ffb169"></path><path d="M0 53L21.5 54.5C43 56 86 59 128.8 61.8C171.7 64.7 214.3 67.3 257.2 68.5C300 69.7 343 69.3 385.8 69.7C428.7 70 471.3 71 514.2 67.5C557 64 600 56 642.8 55.2C685.7 54.3 728.3 60.7 771.2 65.7C814 70.7 857 74.3 878.5 76.2L900 78L900 0L878.5 0C857 0 814 0 771.2 0C728.3 0 685.7 0 642.8 0C600 0 557 0 514.2 0C471.3 0 428.7 0 385.8 0C343 0 300 0 257.2 0C214.3 0 171.7 0 128.8 0C86 0 43 0 21.5 0L0 0Z" fill="#ffca9b"></path><path d="M0 50L21.5 49.5C43 49 86 48 128.8 46C171.7 44 214.3 41 257.2 37.7C300 34.3 343 30.7 385.8 30.7C428.7 30.7 471.3 34.3 514.2 36.3C557 38.3 600 38.7 642.8 40.7C685.7 42.7 728.3 46.3 771.2 47.7C814 49 857 48 878.5 47.5L900 47L900 0L878.5 0C857 0 814 0 771.2 0C728.3 0 685.7 0 642.8 0C600 0 557 0 514.2 0C471.3 0 428.7 0 385.8 0C343 0 300 0 257.2 0C214.3 0 171.7 0 128.8 0C86 0 43 0 21.5 0L0 0Z" fill="#ffe4cc"></path><path d="M0 29L21.5 29.3C43 29.7 86 30.3 128.8 29.3C171.7 28.3 214.3 25.7 257.2 24.5C300 23.3 343 23.7 385.8 23C428.7 22.3 471.3 20.7 514.2 21C557 21.3 600 23.7 642.8 25.5C685.7 27.3 728.3 28.7 771.2 26.7C814 24.7 857 19.3 878.5 16.7L900 14L900 0L878.5 0C857 0 814 0 771.2 0C728.3 0 685.7 0 642.8 0C600 0 557 0 514.2 0C471.3 0 428.7 0 385.8 0C343 0 300 0 257.2 0C214.3 0 171.7 0 128.8 0C86 0 43 0 21.5 0L0 0Z" fill="#ffffff"></path></svg>