<svg id="visual" viewBox="0 0 900 600" width="900" height="600" xmlns="http://www.w3.org/2000/svg" xmlns:xlink="http://www.w3.org/1999/xlink" version="1.1"><rect x="0" y="0" width="900" height="600" fill="#ffffff"></rect><path d="M0 217L21.5 213C43 209 86 201 128.8 195.3C171.7 189.7 214.3 186.3 257.2 180C300 173.7 343 164.3 385.8 172.2C428.7 180 471.3 205 514.2 206.5C557 208 600 186 642.8 179.2C685.7 172.3 728.3 180.7 771.2 188C814 195.3 857 201.7 878.5 204.8L900 208L900 0L878.5 0C857 0 814 0 771.2 0C728.3 0 685.7 0 642.8 0C600 0 557 0 514.2 0C471.3 0 428.7 0 385.8 0C343 0 300 0 257.2 0C214.3 0 171.7 0 128.8 0C86 0 43 0 21.5 0L0 0Z" fill="#cc6709"></path><path d="M0 139L21.5 141.3C43 143.7 86 148.3 128.8 152.7C171.7 157 214.3 161 257.2 167.7C300 174.3 343 183.7 385.8 181.7C428.7 179.7 471.3 166.3 514.2 165.5C557 164.7 600 176.3 642.8 181.2C685.7 186 728.3 184 771.2 186.5C814 189 857 196 878.5 199.5L900 203L900 0L878.5 0C857 0 814 0 771.2 0C728.3 0 685.7 0 642.8 0C600 0 557 0 514.2 0C471.3 0 428.7 0 385.8 0C343 0 300 0 257.2 0C214.3 0 171.7 0 128.8 0C86 0 43 0 21.5 0L0 0Z" fill="#d87217"></path><path d="M0 135L21.5 138.7C43 142.3 86 149.7 128.8 151.7C171.7 153.7 214.3 150.3 257.2 141C300 131.7 343 116.3 385.8 115.5C428.7 114.7 471.3 128.3 514.2 126.3C557 124.3 600 106.7 642.8 107.3C685.7 108 728.3 127 771.2 134.3C814 141.7 857 137.3 878.5 135.2L900 133L900 0L878.5 0C857 0 814 0 771.2 0C728.3 0 685.7 0 642.8 0C600 0 557 0 514.2 0C471.3 0 428.7 0 385.8 0C343 0 300 0 257.2 0C214.3 0 171.7 0 128.8 0C86 0 43 0 21.5 0L0 0Z" fill="#e57e22"></path><path d="M0 97L21.5 92.2C43 87.3 86 77.7 128.8 75.5C171.7 73.3 214.3 78.7 257.2 85.7C300 92.7 343 101.3 385.8 105.8C428.7 110.3 471.3 110.7 514.2 102.5C557 94.3 600 77.7 642.8 72C685.7 66.3 728.3 71.7 771.2 73.2C814 74.7 857 72.3 878.5 71.2L900 70L900 0L878.5 0C857 0 814 0 771.2 0C728.3 0 685.7 0 642.8 0C600 0 557 0 514.2 0C471.3 0 428.7 0 385.8 0C343 0 300 0 257.2 0C214.3 0 171.7 0 128.8 0C86 0 43 0 21.5 0L0 0Z" fill="#f28a2c"></path><path d="M0 58L21.5 56.2C43 54.3 86 50.7 128.8 48C171.7 45.3 214.3 43.7 257.2 42.8C300 42 343 42 385.8 39.2C428.7 36.3 471.3 30.7 514.2 34.5C557 38.3 600 51.7 642.8 57.5C685.7 63.3 728.3 61.7 771.2 60.2C814 58.7 857 57.3 878.5 56.7L900 56L900 0L878.5 0C857 0 814 0 771.2 0C728.3 0 685.7 0 642.8 0C600 0 557 0 514.2 0C471.3 0 428.7 0 385.8 0C343 0 300 0 257.2 0C214.3 0 171.7 0 128.8 0C86 0 43 0 21.5 0L0 0Z" fill="#ff9636"></path></svg>